P3
# Created by GIMP version 2.10.36 PNM plug-in
10 10
255
187
134
112
187
134
112
187
134
112
187
134
112
187
134
112
187
134
112
187
134
112
187
134
112
187
134
112
187
134
112
188
135
113
188
135
113
188
135
113
188
135
113
188
135
113
188
135
113
188
135
113
188
135
113
188
135
113
188
135
113
186
135
113
186
135
113
186
135
113
186
135
113
186
135
113
186
135
113
186
135
113
186
135
113
186
135
113
186
135
113
185
137
113
185
137
113
185
137
113
185
137
113
185
137
113
185
137
113
185
137
113
185
137
113
185
137
113
185
137
113
185
135
112
185
135
112
185
135
112
185
135
112
185
135
112
185
135
112
185
135
112
185
135
112
185
135
112
185
135
112
186
136
113
186
136
113
186
136
113
186
136
113
186
136
113
186
136
113
186
136
113
186
136
113
186
136
113
186
136
113
185
135
112
185
135
112
185
135
112
185
135
112
185
135
112
185
135
112
185
135
112
185
135
112
185
135
112
185
135
112
186
136
113
186
136
113
186
136
113
186
136
113
186
136
113
186
136
113
186
136
113
186
136
113
186
136
113
186
136
113
185
136
113
185
136
113
185
136
113
185
136
113
185
136
113
185
136
113
185
136
113
185
136
113
185
136
113
185
136
113
184
135
112
184
135
112
184
135
112
184
135
112
184
135
112
184
135
112
184
135
112
184
135
112
184
135
112
184
135
112
